<?xml version="1.0" encoding="UTF-8"?><svg xmlns="http://www.w3.org/2000/svg" viewBox="0 0 300 104.16"><defs><style>.d{fill:#001219;}</style></defs><g id="a"/><g id="b"><g id="c"><g><path class="d" d="M83.48,72.03c0,17.23-12.66,31.2-28.28,31.2s-28.28-13.97-28.28-31.2,12.66-31.2,28.28-31.2,28.28,13.97,28.28,31.2Zm-8.74,0c0-13.94-6.9-28.18-19.54-28.18s-19.54,14.24-19.54,28.18,6.9,28.18,19.54,28.18,19.54-14.24,19.54-28.18Z"/><path class="d" d="M125.18,84.58l-.41-1.02-.84-2.08-1.22-3.02-.82-2.05-9.66-24.01-9.66,24.01-.82,2.05-1.22,3.02-.84,2.08-.41,1.02c-7.54,18.84,.44,11.45,.44,17.96h-18.33c0-6.57,7.04,1.6,15.09-18.48l9.67-24.06c8.23-20.41-.22-11.9-.22-18.47h8.24c1.47,0,2.79,.89,3.34,2.25l16.2,40.28c8.05,20.08,15.09,11.91,15.09,18.48h-24.06c0-6.51,7.98,.88,.44-17.96Z"/><path class="d" d="M196.08,86.7c0,10.79-10.27,16.53-22.68,16.53-6.43,0-13.35-1.25-17.9-3.46-1.25-.61-2.03-1.88-2.03-3.26v-16.09c6.56,0,4.68,19.79,19.94,19.79,8.59,0,13.94-4.71,13.94-11.2,0-17.82-33.88-22.82-33.88-35.97,0-7.97,7.87-12.21,20.34-12.21,6.45,0,12.15,1.26,16.36,3.48,1.18,.62,1.91,1.86,1.91,3.19v16.21c-6.56,0-2.87-19.87-18.27-19.87-9.28,0-11.6,3.48-11.6,6.76,0,11.43,33.88,17.4,33.88,36.09Z"/><path class="d" d="M217.27,60.01v24.05c0,21,7.66,11.91,7.66,18.48h-24.06c0-6.57,7.66,2.52,7.66-18.48v-24.05c0-21-7.66-11.91-7.66-18.48h24.06c0,6.56-7.66-2.52-7.66,18.48Z"/><path class="d" d="M274.09,86.7c0,10.79-10.27,16.53-22.68,16.53-6.43,0-13.35-1.25-17.9-3.46-1.25-.61-2.03-1.88-2.03-3.26v-16.09c6.56,0,4.68,19.79,19.94,19.79,8.59,0,13.94-4.71,13.94-11.2,0-17.82-33.88-22.82-33.88-35.97,0-7.97,7.87-12.21,20.34-12.21,6.45,0,12.15,1.26,16.36,3.48,1.18,.62,1.91,1.86,1.91,3.19v16.21c-6.56,0-2.87-19.87-18.27-19.87-9.28,0-11.6,3.48-11.6,6.76,0,11.43,33.88,17.4,33.88,36.09Z"/><g><path class="d" d="M96.05,20.72c-2.49,0-4.81-.35-6.96-1.04l-.39-5.39h.25c1.67,3.82,4.07,5.73,7.22,5.73,1.42,0,2.52-.25,3.29-.74s1.15-1.23,1.15-2.2c0-.51-.12-.97-.36-1.39-.24-.42-.63-.82-1.17-1.21-.53-.38-1.07-.72-1.61-1s-1.25-.62-2.11-1.01l-.95-.42c-.52-.22-.98-.44-1.38-.65-.39-.21-.83-.45-1.31-.73-.48-.28-.88-.57-1.22-.87s-.66-.62-.96-.97c-.3-.35-.52-.73-.67-1.15-.15-.42-.22-.86-.22-1.31,0-1.18,.38-2.18,1.14-3,.76-.82,1.75-1.42,2.99-1.78,1.24-.37,2.68-.55,4.32-.55,1.98,0,4.09,.34,6.32,1.01l.48,5.42h-.22c-.81-1.83-1.78-3.25-2.92-4.24s-2.55-1.49-4.21-1.49c-1.12,0-2.01,.25-2.67,.74s-.98,1.15-.98,1.95c0,.45,.1,.85,.29,1.21s.51,.68,.96,.97c.44,.29,.87,.54,1.31,.74,.43,.21,1,.45,1.71,.73l1.18,.48c.9,.36,1.7,.73,2.42,1.11,.71,.38,1.39,.84,2.05,1.38s1.16,1.15,1.52,1.84,.53,1.44,.53,2.25c0,1.25-.41,2.31-1.22,3.17-.81,.86-1.87,1.48-3.16,1.85-1.29,.38-2.76,.56-4.41,.56Z"/><path class="d" d="M120.65,16.34c0,.52,.08,1.07,.24,1.63,.16,.56,.43,1.07,.81,1.52s.84,.67,1.36,.67v.53h-8v-.53c.37,0,.7-.09,.97-.27,.27-.18,.48-.4,.62-.66s.25-.59,.34-1c.08-.4,.13-.76,.14-1.07,0-.31,.01-.67,.01-1.08v-5.73c0-.99-.23-1.83-.7-2.53-.47-.69-1.11-1.04-1.94-1.04-.6,0-1.24,.11-1.92,.32-.68,.22-1.25,.53-1.7,.94v8.03c0,.49,.03,.94,.1,1.36,.07,.42,.18,.85,.35,1.29,.17,.44,.42,.79,.74,1.04s.73,.38,1.19,.38v.53h-8.28v-.53c.69,0,1.26-.44,1.71-1.32,.45-.88,.67-1.8,.67-2.75V4.27c0-.69-.15-1.31-.46-1.84-.31-.53-.77-.8-1.39-.8v-.59l4.77-1.04,.59,.53V7.24c1.63-1.07,3.17-1.6,4.63-1.6,1.53,0,2.77,.44,3.72,1.31,.94,.87,1.42,2.03,1.42,3.47v5.92Z"/><path class="d" d="M130.08,6.12c2.15,0,3.86,.67,5.12,2.02,1.26,1.35,1.9,3.17,1.9,5.48s-.63,4.12-1.9,5.46c-1.26,1.34-2.97,2.01-5.12,2.01s-3.89-.67-5.15-2.01c-1.26-1.34-1.9-3.16-1.9-5.46s.63-4.13,1.9-5.48c1.26-1.35,2.98-2.02,5.15-2.02Zm-1.75,13.6c.48,.44,1.06,.66,1.74,.66s1.27-.22,1.75-.66c.49-.44,.85-1.02,1.08-1.74,.23-.72,.4-1.44,.49-2.15,.09-.71,.14-1.45,.14-2.22,0-1.98-.3-3.61-.91-4.87s-1.46-1.9-2.54-1.9-1.94,.63-2.55,1.9c-.62,1.26-.93,2.89-.93,4.87,0,.77,.05,1.51,.15,2.22,.1,.71,.27,1.43,.5,2.15,.23,.72,.59,1.3,1.07,1.74Z"/><path class="d" d="M146.96,5.36c2,0,3.61,.67,4.83,2.02s1.83,3.12,1.83,5.31c0,2.42-.7,4.36-2.09,5.84-1.39,1.48-3.23,2.22-5.52,2.22-1.1,0-2.11-.26-3-.79v1.32c0,.65,.08,1.29,.24,1.91,.16,.62,.44,1.17,.86,1.64,.41,.48,.92,.72,1.52,.72v.53h-8.45v-.53c.51,0,.95-.22,1.32-.67,.37-.45,.64-.97,.79-1.56,.15-.59,.22-1.18,.22-1.78V9.86c0-.71-.19-1.34-.56-1.9-.38-.55-.9-.83-1.57-.83v-.7l5.05-1.04,.59,.53v.7c1.12-.84,2.44-1.26,3.96-1.26Zm-.95,14.69c.77,0,1.45-.32,2.05-.95,.6-.64,1.05-1.47,1.35-2.51,.3-1.04,.45-2.19,.45-3.47,0-1.14-.15-2.22-.46-3.23-.31-1.01-.76-1.84-1.36-2.48-.6-.65-1.27-.97-2.02-.97-1.35,0-2.35,.4-3,1.21v10.87c.22,.49,.61,.87,1.17,1.14,.55,.27,1.17,.41,1.84,.41Z"/><path class="d" d="M164.09,5.36c2,0,3.61,.67,4.83,2.02,1.22,1.35,1.83,3.12,1.83,5.31,0,2.42-.7,4.36-2.09,5.84-1.4,1.48-3.23,2.22-5.52,2.22-1.1,0-2.11-.26-3-.79v1.32c0,.65,.08,1.29,.24,1.91s.44,1.17,.86,1.64c.41,.48,.92,.72,1.52,.72v.53h-8.45v-.53c.5,0,.95-.22,1.32-.67s.64-.97,.79-1.56c.15-.59,.22-1.18,.22-1.78V9.86c0-.71-.19-1.34-.56-1.9-.37-.55-.9-.83-1.57-.83v-.7l5.05-1.04,.59,.53v.7c1.12-.84,2.44-1.26,3.96-1.26Zm-.96,14.69c.77,0,1.45-.32,2.05-.95,.6-.64,1.05-1.47,1.35-2.51,.3-1.04,.45-2.19,.45-3.47,0-1.14-.16-2.22-.46-3.23-.31-1.01-.76-1.84-1.36-2.48-.6-.65-1.27-.97-2.02-.97-1.35,0-2.35,.4-3,1.21v10.87c.22,.49,.61,.87,1.17,1.14,.55,.27,1.17,.41,1.84,.41Z"/><path class="d" d="M176.84,16.2c0,.82,.24,1.69,.72,2.6,.48,.91,1.03,1.36,1.67,1.36v.53h-8.28v-.53c.51,0,.95-.24,1.32-.73,.38-.49,.64-1.04,.8-1.66s.24-1.24,.24-1.85v-5.67c0-.37-.03-.73-.1-1.07-.07-.34-.17-.66-.32-.98-.15-.32-.37-.57-.65-.76-.28-.19-.62-.28-1.01-.28v-.7l5.14-1.07,.48,.59v10.22Zm-.24-15.43c.38,.42,.56,.92,.52,1.49-.04,.57-.27,1.05-.7,1.43s-.93,.56-1.5,.52c-.57-.04-1.04-.27-1.42-.69-.38-.42-.54-.92-.51-1.49,.04-.57,.27-1.05,.69-1.43,.42-.38,.92-.56,1.49-.52,.57,.04,1.05,.27,1.43,.69Z"/><path class="d" d="M194.44,16.23c0,.38,0,.66,.01,.87,0,.21,.03,.49,.07,.86,.04,.37,.1,.66,.2,.87s.22,.44,.38,.66,.37,.39,.63,.51,.57,.17,.93,.17v.53h-7.95v-.53c.43,0,.79-.08,1.09-.25,.3-.17,.52-.37,.66-.59s.25-.54,.32-.94c.08-.4,.12-.73,.13-.97,0-.24,.01-.58,.01-1.01v-6.88c0-.82-.21-1.49-.65-1.99-.43-.51-.99-.76-1.68-.76-1.14,0-2.24,.44-3.29,1.32v8.17c0,.37,0,.66,.01,.86,0,.2,.03,.48,.07,.84,.04,.37,.1,.66,.2,.87s.21,.44,.37,.67c.15,.23,.36,.4,.63,.51,.27,.1,.58,.15,.94,.15v.53h-7.95v-.53c.35,0,.67-.08,.94-.25,.27-.17,.49-.39,.65-.66,.16-.27,.29-.58,.39-.94,.1-.36,.17-.7,.2-1.04s.04-.68,.04-1.04v-6.63c0-.69-.16-1.3-.49-1.83-.33-.52-.82-.79-1.47-.79v-.56l4.89-1.04,.59,.51v1.29c1.5-1.03,2.95-1.54,4.35-1.54,.82,0,1.54,.1,2.15,.29,.61,.2,1.08,.44,1.4,.72,.33,.28,.59,.62,.79,1.01s.32,.74,.37,1.04c.05,.3,.07,.6,.07,.9v6.63Z"/><path class="d" d="M210.39,2.5c.37,.04,.72,.15,1.02,.35,.31,.2,.55,.46,.72,.79,.17,.33,.24,.68,.22,1.05-.02,.3-.09,.57-.22,.81-.24,.56-.7,1.05-1.36,1.47-.67,.42-1.27,.7-1.81,.83l-.81,.2c.62,.54,1.08,1.17,1.38,1.88,.3,.71,.45,1.37,.45,1.97,0,1.61-.57,2.91-1.7,3.9-1.13,.99-2.62,1.49-4.45,1.49-.36,0-.73-.03-1.11-.1-.38-.07-.74-.15-1.07-.27-.33-.11-.63-.23-.9-.35-.27-.12-.5-.25-.69-.38-.32,.22-.52,.54-.62,.95-.09,.41,.03,.81,.36,1.18,.32,.3,1.2,.45,2.64,.45h3.68c1.67,0,2.95,.34,3.86,1.02,.91,.68,1.36,1.65,1.36,2.91,0,1.38-.68,2.5-2.04,3.34-1.36,.84-3.15,1.26-5.38,1.26s-3.86-.32-5.11-.95c-1.25-.64-1.88-1.51-1.88-2.61,0-1.24,.63-2.21,1.88-2.92-.69-.45-1.04-1.09-1.04-1.94,0-1.12,.62-2.09,1.85-2.89-1.31-1.01-1.97-2.4-1.97-4.16,0-1.61,.57-2.91,1.7-3.89,1.13-.98,2.62-1.47,4.45-1.47,1.25,0,2.33,.23,3.23,.7,1.29-.11,2.34-.28,3.14-.51l-.03,.03c-.58-.04-1.06-.27-1.43-.7-.37-.43-.55-.93-.52-1.5,.03-.57,.26-1.04,.69-1.42,.43-.37,.93-.55,1.49-.53Zm-9.63,18.95c-.11,.11-.2,.36-.25,.74-.06,.38-.04,.83,.04,1.33,.08,.51,.24,1,.48,1.47,.23,.48,.62,.88,1.17,1.21,.54,.33,1.21,.49,1.99,.49,1.33,0,2.35-.36,3.06-1.07,.71-.71,1.07-1.51,1.07-2.39,0-1.12-.66-1.68-1.97-1.68-.32,0-.82,0-1.52,.03-1.91,.04-3.27,0-4.07-.14Zm3.06-4.86c.75,0,1.35-.47,1.81-1.42,.46-.95,.69-2.05,.69-3.33s-.23-2.4-.69-3.31c-.46-.92-1.06-1.38-1.81-1.38-.39,0-.75,.13-1.08,.38-.33,.25-.59,.6-.8,1.04-.21,.44-.37,.94-.48,1.5s-.17,1.15-.17,1.77c0,.82,.1,1.59,.29,2.3,.2,.71,.49,1.3,.87,1.75,.38,.46,.84,.69,1.36,.69Z"/></g><path class="d" d="M0,100.32c33.72-20.48,75.18-34.62,114.86-26.51,13.01,3.07,25.48,7.95,38.02,12.29,12.36,4.37,24.83,7.82,37.67,10.17,6.24,1.14,12.78,2.08,19.12,2.03,26.24,.17,50.86-11.2,73.26-23.96,5.72-3.26,11.38-6.67,17.08-10.02-21.25,15.72-44.01,30.96-70.13,37.13-9.88,2.31-20.2,3.28-30.36,2.36-9.98-1.1-19.96-2.89-29.69-5.38-15.02-3.84-32.4-10.73-47.19-15.37-40.87-13.09-84.72,.4-122.63,17.25H0Z"/></g></g></g></svg>